<?xml version="1.0" encoding="UTF-8"?>
<!DOCTYPE svg PUBLIC "-//W3C//DTD SVG 1.1//EN" "http://www.w3.org/Graphics/SVG/1.1/DTD/svg11.dtd">
<svg xmlns="http://www.w3.org/2000/svg" version="1.1" width="32px" height="32px" style="shape-rendering:geometricPrecision; text-rendering:geometricPrecision; image-rendering:optimizeQuality; fill-rule:evenodd; clip-rule:evenodd" xmlns:xlink="http://www.w3.org/1999/xlink">
<g><path style="opacity:0.74" fill="#000000" d="M 31.5,4.5 C 31.5,5.5 31.5,6.5 31.5,7.5C 27.2934,9.43544 23.6267,12.1021 20.5,15.5C 23.6267,18.8979 27.2934,21.5646 31.5,23.5C 31.5,24.5 31.5,25.5 31.5,26.5C 29.5454,27.3235 27.5454,27.4901 25.5,27C 21.7354,24.3694 17.902,21.8694 14,19.5C 13.228,19.6448 12.5613,19.9781 12,20.5C 11.5488,29.9111 7.3821,32.2444 -0.5,27.5C -0.5,25.1667 -0.5,22.8333 -0.5,20.5C 1.66039,18.1498 4.16039,17.4831 7,18.5C 11.6667,16.5 11.6667,14.5 7,12.5C 4.16039,13.5169 1.66039,12.8502 -0.5,10.5C -0.5,8.16667 -0.5,5.83333 -0.5,3.5C 7.3821,-1.24443 11.5488,1.08891 12,10.5C 12.5613,11.0219 13.228,11.3552 14,11.5C 17.902,9.13056 21.7354,6.63056 25.5,4C 27.5454,3.50987 29.5454,3.67653 31.5,4.5 Z M 4.5,4.5 C 8.14684,5.87251 8.31351,7.53917 5,9.5C 4.16667,8.66667 3.33333,7.83333 2.5,7C 3.38053,6.2917 4.0472,5.45837 4.5,4.5 Z M 4.5,21.5 C 8.14684,22.8725 8.31351,24.5392 5,26.5C 4.16667,25.6667 3.33333,24.8333 2.5,24C 3.38053,23.2917 4.0472,22.4584 4.5,21.5 Z"/></g>
</svg>
